#!OML:ASF X:\für Bonn\!DataBase\2005_08_10_Bjorn_Final\c3d\bjorn.ASF
:FULLY-SPECIFIED
:DEGREES
151
root 0.552428 18.3454 2.51639 -171.347 -1.73475 -182.396
lowerback 3.85609 1.33895 3.44296
upperback 7.50466 1.13099 0.201062
thorax 5.71443 0.473997 -1.72849
lowerneck -19.7617 -1.65817 1.62599
upperneck 12.7321 -2.08894 -3.70877
head 7.06644 -1.28619 -1.72298
rclavicle -1.98785e-015 5.56597e-015
rhumerus 76.6254 4.63108 -78.4291
rradius 6.08408
rwrist 51.0582
rhand -16.1111 8.90896
rfingers 7.12502
rthumb 10.093 -20.829
lclavicle -1.98785e-015 5.56597e-015
lhumerus 75.5092 -11.4229 84.6089
lradius 5.09853
lwrist -58.2987
lhand -21.21 -3.84261
lfingers 7.12502
lthumb 5.17154 26.0743
rfemur -33.0858 -8.72859 14.1722
rtibia 55.4527
rfoot -23.3463 10.0898
rtoes -26.3388
lfemur -32.1254 3.83477 -21.6065
ltibia 54.2181
lfoot -20.921 -0.849286
ltoes -18.5239
152
root 0.562997 18.4978 2.4765 -171.285 -1.77775 -182.361
lowerback 3.43116 1.33485 3.38559
upperback 7.31624 1.15637 0.194084
thorax 5.75318 0.499786 -1.69668
lowerneck -19.2748 -1.73136 1.63195
upperneck 12.8188 -2.18299 -3.72602
head 7.01085 -1.33013 -1.73426
rclavicle 7.95139e-016 1.98785e-014
rhumerus 76.3826 4.6505 -78.4502
rradius 6.04925
rwrist 51.1578
rhand -15.9688 8.87791
rfingers 7.12502
rthumb 10.2302 -20.8533
lclavicle 7.95139e-016 1.98785e-014
lhumerus 75.1481 -11.5527 84.5827
lradius 5.24934
lwrist -58.1186
lhand -21.3962 -3.81044
lfingers 7.12502
lthumb 4.99178 26.1108
rfemur -31.6718 -8.86849 14.2557
rtibia 52.9396
rfoot -22.4407 10.2241
rtoes -25.4712
lfemur -30.6118 4.04221 -21.4989
ltibia 51.5068
lfoot -20.3318 -1.1845
ltoes -17.8562
153
root 0.574247 18.6393 2.43605 -171.245 -1.82283 -182.305
lowerback 3.04841 1.33085 3.34944
upperback 7.1159 1.1827 0.189849
thorax 5.75645 0.526039 -1.6744
lowerneck -18.7622 -1.79249 1.66088
upperneck 12.879 -2.2629 -3.77801
head 6.94174 -1.36983 -1.75799
rclavicle -4.77083e-015 3.73715e-014
rhumerus 76.1949 4.64698 -78.461
rradius 5.90083
rwrist 51.3769
rhand -15.9324 8.87695
rfingers 7.12502
rthumb 10.2654 -20.8525
lclavicle -4.77083e-015 3.73715e-014
lhumerus 74.78 -11.7001 84.5601
lradius 5.41168
lwrist -58.0895
lhand -21.5127 -3.70559
lfingers 7.12502
lthumb 4.87928 26.2182
rfemur -30.2876 -9.02902 14.3576
rtibia 50.5322
rfoot -21.5651 10.3932
rtoes -24.7296
lfemur -29.1294 4.29389 -21.3717
ltibia 48.8967
lfoot -19.7405 -1.46107
ltoes -17.7076
154
root 0.585247 18.7696 2.39535 -171.204 -1.86807 -182.249
lowerback 2.66552 1.3223 3.31464
upperback 6.92207 1.20068 0.18195
thorax 5.76697 0.547543 -1.65674
lowerneck -18.3293 -1.85658 1.65311
upperneck 12.96 -2.34584 -3.78077
head 6.89334 -1.4089 -1.76129
rclavicle 1.98785e-014 -4.77083e-015
rhumerus 76.1032 4.64641 -78.4713
rradius 5.66755
rwrist 51.6891
rhand -15.957 8.86413
rfingers 7.12502
rthumb 10.2417 -20.8665
lclavicle 1.98785e-014 -4.77083e-015
lhumerus 74.4734 -11.7995 84.5103
lradius 5.56366
lwrist -58.0921
lhand -21.5291 -3.68725
lfingers 7.12502
lthumb 4.86344 26.2369
rfemur -28.9649 -9.1955 14.453
rtibia 48.238
rfoot -20.6872 10.5507
rtoes -23.9476
lfemur -27.7136 4.53098 -21.2348
ltibia 46.4014
lfoot -19.0922 -1.85282
ltoes -17.0725
155
root 0.59638 18.888 2.35379 -171.191 -1.90617 -182.176
lowerback 2.30118 1.31312 3.28427
upperback 6.74852 1.21243 0.189957
thorax 5.78848 0.563999 -1.6254
lowerneck -18.0211 -1.91198 1.61826
upperneck 13.1191 -2.40806 -3.80364
head 6.89176 -1.44299 -1.76764
rclavicle 1.27222e-014 1.51076e-014
rhumerus 76.0127 4.66315 -78.4714
rradius 5.56737
rwrist 51.9378
rhand -15.8494 8.80516
rfingers 7.12502
rthumb 10.3454 -20.9204
lclavicle 1.27222e-014 1.51076e-014
lhumerus 74.315 -11.864 84.4542
lradius 5.62077
lwrist -58.2557
lhand -21.4382 -3.62828
lfingers 7.12502
lthumb 4.95122 26.2939
rfemur -27.6746 -9.39698 14.5671
rtibia 46.0658
rfoot -19.8492 10.7408
rtoes -23.1696
lfemur -26.3232 4.82224 -21.0704
ltibia 44.0208
lfoot -18.3789 -2.28704
ltoes -16.5193
156
root 0.607765 18.9957 2.31152 -171.18 -1.95195 -182.099
lowerback 1.93161 1.30899 3.26261
upperback 6.57206 1.2308 0.188299
thorax 5.81117 0.584351 -1.6086
lowerneck -17.7292 -1.96833 1.6274
upperneck 13.3076 -2.48334 -3.82506
head 6.90124 -1.48138 -1.78269
rclavicle -1.53064e-014 3.02153e-014
rhumerus 75.7653 4.67325 -78.5067
rradius 5.76508
rwrist 52.2782
rhand -15.6581 8.71264
rfingers 7.12502
rthumb 10.53 -21.0036
lclavicle -1.53064e-014 3.02153e-014
lhumerus 74.2131 -11.9202 84.3699
lradius 5.6533
lwrist -58.4994
lhand -21.2285 -3.6627
lfingers 7.12502
lthumb 5.15375 26.2546
rfemur -26.4463 -9.65489 14.687
rtibia 44.0428
rfoot -19.0714 10.9273
rtoes -22.5679
lfemur -25.0084 5.16379 -20.9018
ltibia 41.7929
lfoot -17.5941 -2.78276
ltoes -15.9468
157
root 0.61785 19.0891 2.2698 -171.195 -2.01254 -182.007
lowerback 1.58024 1.299 3.26425
upperback 6.41002 1.2372 0.195085
thorax 5.83916 0.598401 -1.59667
lowerneck -17.5464 -2.02509 1.57024
upperneck 13.5914 -2.54982 -3.80704
head 6.96176 -1.5169 -1.77661
rclavicle -1.33186e-014 1.43125e-014
rhumerus 75.463 4.66923 -78.5321
rradius 6.10452
rwrist 52.5858
rhand -15.3988 8.57886
rfingers 7.12502
rthumb 10.7801 -21.1245
lclavicle -1.33186e-014 1.43125e-014
lhumerus 74.182 -11.9821 84.2906
lradius 5.64087
lwrist -58.7456
lhand -20.9413 -3.67812
lfingers 7.12502
lthumb 5.43102 26.2323
rfemur -25.2836 -9.91805 14.8105
rtibia 42.1936
rfoot -18.3311 11.1391
rtoes -21.8563
lfemur -23.7601 5.45173 -20.702
ltibia 39.7332
lfoot -16.8051 -3.30027
ltoes -15.0068
158
root 0.62755 19.1678 2.22747 -171.19 -2.05369 -181.895
lowerback 1.17766 1.31385 3.30531
upperback 6.24477 1.27565 0.186072
thorax 5.89685 0.63163 -1.62089
lowerneck -17.2509 -2.09721 1.53742
upperneck 13.7862 -2.64766 -3.77268
head 6.97308 -1.56386 -1.76908
rclavicle -1.15295e-014 2.14687e-014
rhumerus 75.1514 4.61088 -78.5696
rradius 6.46996
rwrist 52.793
rhand -15.0525 8.47749
rfingers 7.12502
rthumb 11.1141 -21.2082
lclavicle -1.15295e-014 2.14687e-014
lhumerus 74.2027 -12.066 84.1845
lradius 5.58809
lwrist -59.0135
lhand -20.5838 -3.7791
lfingers 7.12502
lthumb 5.77616 26.1222
rfemur -24.248 -10.2227 14.9573
rtibia 40.5371
rfoot -17.6452 11.3663
rtoes -21.3189
lfemur -22.6314 5.80969 -20.484
ltibia 37.8673
lfoot -16.0129 -3.85356
ltoes -14.3042
159
root 0.637174 19.2354 2.18621 -171.191 -2.11493 -181.784
lowerback 0.775731 1.29958 3.31616
upperback 6.09348 1.27091 0.199205
thorax 5.96544 0.640072 -1.60689
lowerneck -16.9974 -2.14691 1.44811
upperneck 13.9927 -2.70723 -3.71049
head 6.99773 -1.59365 -1.74016
rclavicle 1.98785e-016 2.3059e-014
rhumerus 74.9262 4.5826 -78.5789
rradius 6.75703
rwrist 52.8783
rhand -14.7326 8.41797
rfingers 7.12502
rthumb 11.4226 -21.2509
lclavicle 1.98785e-016 2.3059e-014
lhumerus 74.2666 -12.0769 84.0769
lradius 5.52279
lwrist -59.2491
lhand -20.1889 -3.8814
lfingers 7.12502
lthumb 6.15741 26.0091
rfemur -23.2988 -10.5458 15.1047
rtibia 39.0611
rfoot -16.9931 11.5883
rtoes -20.7827
lfemur -21.6063 6.18313 -20.2631
ltibia 36.1984
lfoot -15.2192 -4.43852
ltoes -13.4041
160
root 0.646945 19.2952 2.14437 -171.188 -2.15723 -181.651
lowerback 0.35452 1.30883 3.34187
upperback 5.95105 1.29417 0.21817
thorax 6.05677 0.662722 -1.59332
lowerneck -16.7994 -2.20897 1.36765
upperneck 14.2339 -2.78489 -3.66285
head 7.04225 -1.63395 -1.7209
rclavicle -2.72335e-014 -2.22639e-014
rhumerus 74.7379 4.51959 -78.5708
rradius 7.00735
rwrist 52.8609
rhand -14.3389 8.32666
rfingers 7.12502
rthumb 11.8024 -21.3208
lclavicle -2.72335e-014 -2.22639e-014
lhumerus 74.3764 -12.1205 83.9785
lradius 5.44017
lwrist -59.3873
lhand -19.8416 -4.01008
lfingers 7.12502
lthumb 6.49272 25.8704
rfemur -22.4481 -10.8824 15.2653
rtibia 37.7584
rfoot -16.2955 11.8982
rtoes -19.9765
lfemur -20.6847 6.58022 -20.0128
ltibia 34.7399
lfoot -14.4756 -5.05832
ltoes -12.3245
161
root 0.655734 19.3454 2.10407 -171.193 -2.21575 -181.462
lowerback -0.0550294 1.31318 3.45377
upperback 5.8044 1.30748 0.228701
thorax 6.13983 0.684502 -1.6373
lowerneck -16.538 -2.26352 1.27209
upperneck 14.4407 -2.86299 -3.53618
head 7.06621 -1.66746 -1.6717
rclavicle 3.97569e-015 -3.10104e-014
rhumerus 74.6147 4.42145 -78.5808
rradius 7.15241
rwrist 52.659
rhand -14.0148 8.29638
rfingers 7.12502
rthumb 12.1148 -21.3329
lclavicle 3.97569e-015 -3.10104e-014
lhumerus 74.4857 -12.1549 83.837
lradius 5.37933
lwrist -59.5648
lhand -19.5543 -4.14901
lfingers 7.12502
lthumb 6.77013 25.7228
rfemur -21.6729 -11.2492 15.495
rtibia 36.6003
rfoot -15.5753 12.1767
rtoes -19.4443
lfemur -19.8666 6.95419 -19.6956
ltibia 33.4798
lfoot -13.7754 -5.67171
ltoes -11.326
162
root 0.664742 19.3874 2.06578 -171.176 -2.28944 -181.238
lowerback -0.486018 1.30582 3.58467
upperback 5.66469 1.29959 0.257429
thorax 6.24188 0.695772 -1.67371
lowerneck -16.2808 -2.30075 1.18874
upperneck 14.6171 -2.91685 -3.44029
head 7.08108 -1.69184 -1.6315
rclavicle -7.35503e-015 1.43125e-014
rhumerus 74.5729 4.36894 -78.5943
rradius 7.22944
rwrist 52.3587
rhand -13.6816 8.2791
rfingers 7.12502
rthumb 12.4361 -21.3309
lclavicle -7.35503e-015 1.43125e-014
lhumerus 74.625 -12.1768 83.6958
lradius 5.31162
lwrist -59.6672
lhand -19.3965 -4.24919
lfingers 7.12502
lthumb 6.92241 25.6176
rfemur -20.9976 -11.6205 15.7632
rtibia 35.5708
rfoot -14.8494 12.4845
rtoes -18.5305
lfemur -19.1954 7.3566 -19.3432
ltibia 32.4347
lfoot -13.1002 -6.2798
ltoes -10.3056
